<svg width="1537" height="1080" viewBox="0 0 1537 1080" fill="none" xmlns="http://www.w3.org/2000/svg">
<line x1="2116.97" y1="546.218" x2="1347.63" y2="1631.12" stroke="black"/>
<line x1="2059.87" y1="505.726" x2="1290.53" y2="1590.63" stroke="black"/>
<line x1="2002.77" y1="465.235" x2="1233.43" y2="1550.14" stroke="black"/>
<line x1="1945.67" y1="424.743" x2="1176.33" y2="1509.65" stroke="black"/>
<line x1="1888.57" y1="384.252" x2="1119.23" y2="1469.15" stroke="black"/>
<line x1="1831.47" y1="343.76" x2="1062.13" y2="1428.66" stroke="black"/>
<line x1="1774.37" y1="303.268" x2="1005.03" y2="1388.17" stroke="black"/>
<line x1="1717.27" y1="262.777" x2="947.927" y2="1347.68" stroke="black"/>
<line x1="1660.17" y1="222.285" x2="890.827" y2="1307.19" stroke="black"/>
<line x1="1603.07" y1="181.793" x2="833.727" y2="1266.7" stroke="black"/>
<line x1="1545.97" y1="141.302" x2="776.627" y2="1226.2" stroke="black"/>
<line y1="-0.5" x2="1428.71" y2="-0.5" transform="matrix(-0.583916 0.811814 -0.819564 -0.572987 1563 25.5775)" stroke="black"/>
<line y1="-0.5" x2="1428.71" y2="-0.5" transform="matrix(-0.583916 0.811814 -0.819564 -0.572987 1501.08 -17.7113)" stroke="black"/>
<line y1="-0.5" x2="1428.71" y2="-0.5" transform="matrix(-0.583916 0.811814 -0.819564 -0.572987 1439.16 -61)" stroke="black"/>
<line x1="1317.57" y1="-20.6646" x2="548.226" y2="1064.24" stroke="black"/>
<line x1="1260.47" y1="-61.1563" x2="491.126" y2="1023.75" stroke="black"/>
<line x1="1203.37" y1="-101.648" x2="434.026" y2="983.255" stroke="black"/>
<line x1="1146.27" y1="-142.139" x2="376.925" y2="942.764" stroke="black"/>
<line x1="1089.17" y1="-182.631" x2="319.825" y2="902.272" stroke="black"/>
<line x1="1630.37" y1="1231.54" x2="560.153" y2="472.61" stroke="black"/>
<line x1="1670.86" y1="1174.44" x2="600.644" y2="415.509" stroke="black"/>
<line x1="1711.36" y1="1117.34" x2="641.136" y2="358.409" stroke="black"/>
<line x1="1751.85" y1="1060.24" x2="681.627" y2="301.309" stroke="black"/>
<line x1="1792.34" y1="1003.14" x2="722.119" y2="244.209" stroke="black"/>
<line x1="1832.83" y1="946.038" x2="762.611" y2="187.109" stroke="black"/>
<line x1="1873.32" y1="888.938" x2="803.102" y2="130.009" stroke="black"/>
<line x1="1346.93" y1="1631.24" x2="276.711" y2="872.31" stroke="black"/>
<line x1="1387.42" y1="1574.14" x2="317.204" y2="815.21" stroke="black"/>
<line x1="1427.91" y1="1517.04" x2="357.695" y2="758.11" stroke="black"/>
<line x1="1468.41" y1="1459.94" x2="398.186" y2="701.01" stroke="black"/>
<line x1="1508.9" y1="1402.84" x2="438.678" y2="643.91" stroke="black"/>
<line x1="1549.39" y1="1345.74" x2="479.169" y2="586.81" stroke="black"/>
<line x1="1589.88" y1="1288.64" x2="519.661" y2="529.71" stroke="black"/>
<line x1="1913.81" y1="831.838" x2="843.594" y2="72.9087" stroke="black"/>
<line x1="1954.31" y1="774.737" x2="884.085" y2="15.8085" stroke="black"/>
<line x1="1994.8" y1="717.637" x2="924.577" y2="-41.2917" stroke="black"/>
<line x1="2035.29" y1="660.537" x2="965.069" y2="-98.3919" stroke="black"/>
<line x1="2075.78" y1="603.437" x2="1005.56" y2="-155.492" stroke="black"/>
<line x1="2116.27" y1="546.337" x2="1046.05" y2="-212.592" stroke="black"/>
<line x1="1932.93" y1="333.337" x2="862.71" y2="-425.592" stroke="black"/>
<ellipse cx="601" cy="222" rx="601" ry="816" fill="url(#paint0_linear)"/>
<rect x="1160.06" y="472.086" width="377" height="461" transform="rotate(-13.7789 1160.06 472.086)" fill="#1E1C70"/>
<line x1="1197.59" y1="462.622" x2="1307.39" y2="910.356" stroke="white" stroke-opacity="0.5"/>
<line x1="1217.01" y1="457.859" x2="1326.81" y2="905.592" stroke="white" stroke-opacity="0.5"/>
<line x1="1236.44" y1="453.096" x2="1346.23" y2="900.829" stroke="white" stroke-opacity="0.5"/>
<line x1="1178.16" y1="467.386" x2="1287.96" y2="915.119" stroke="white" stroke-opacity="0.5"/>
<line x1="1275.28" y1="443.568" x2="1385.08" y2="891.302" stroke="white" stroke-opacity="0.5"/>
<line x1="1294.71" y1="438.805" x2="1404.51" y2="886.538" stroke="white" stroke-opacity="0.5"/>
<line x1="1314.13" y1="434.041" x2="1423.93" y2="881.775" stroke="white" stroke-opacity="0.5"/>
<line x1="1255.86" y1="448.332" x2="1365.66" y2="896.065" stroke="white" stroke-opacity="0.5"/>
<line x1="1352.98" y1="424.514" x2="1462.78" y2="872.248" stroke="white" stroke-opacity="0.5"/>
<line x1="1372.41" y1="419.751" x2="1482.21" y2="867.484" stroke="white" stroke-opacity="0.5"/>
<line x1="1391.83" y1="414.987" x2="1501.63" y2="862.721" stroke="white" stroke-opacity="0.5"/>
<line x1="1333.56" y1="429.278" x2="1443.36" y2="877.011" stroke="white" stroke-opacity="0.5"/>
<line x1="1430.68" y1="405.46" x2="1540.48" y2="853.194" stroke="white" stroke-opacity="0.5"/>
<line x1="1450.1" y1="400.697" x2="1559.9" y2="848.43" stroke="white" stroke-opacity="0.5"/>
<line x1="1469.53" y1="395.933" x2="1579.33" y2="843.667" stroke="white" stroke-opacity="0.5"/>
<line x1="1488.95" y1="391.17" x2="1598.75" y2="838.903" stroke="white" stroke-opacity="0.5"/>
<line x1="1508.38" y1="386.406" x2="1618.18" y2="834.14" stroke="white" stroke-opacity="0.5"/>
<line x1="1411.26" y1="410.224" x2="1521.05" y2="857.957" stroke="white" stroke-opacity="0.5"/>
<line x1="1534.56" y1="415.507" x2="1168.41" y2="505.299" stroke="white" stroke-opacity="0.5"/>
<line x1="1539.33" y1="434.932" x2="1173.18" y2="524.724" stroke="white" stroke-opacity="0.5"/>
<line x1="1544.09" y1="454.356" x2="1177.94" y2="544.148" stroke="white" stroke-opacity="0.5"/>
<line x1="1529.8" y1="396.083" x2="1163.65" y2="485.875" stroke="white" stroke-opacity="0.5"/>
<line x1="1553.62" y1="493.205" x2="1187.47" y2="582.997" stroke="white" stroke-opacity="0.5"/>
<line x1="1558.38" y1="512.629" x2="1192.23" y2="602.422" stroke="white" stroke-opacity="0.5"/>
<line x1="1563.14" y1="532.054" x2="1196.99" y2="621.846" stroke="white" stroke-opacity="0.5"/>
<line x1="1548.85" y1="473.781" x2="1182.7" y2="563.573" stroke="white" stroke-opacity="0.5"/>
<line x1="1572.67" y1="570.903" x2="1206.52" y2="660.695" stroke="white" stroke-opacity="0.5"/>
<line x1="1577.43" y1="590.327" x2="1211.28" y2="680.119" stroke="white" stroke-opacity="0.5"/>
<line x1="1582.2" y1="609.752" x2="1216.05" y2="699.544" stroke="white" stroke-opacity="0.5"/>
<line x1="1567.91" y1="551.478" x2="1201.76" y2="641.271" stroke="white" stroke-opacity="0.5"/>
<line x1="1591.72" y1="648.601" x2="1225.57" y2="738.393" stroke="white" stroke-opacity="0.5"/>
<line x1="1596.49" y1="668.025" x2="1230.34" y2="757.817" stroke="white" stroke-opacity="0.5"/>
<line x1="1601.25" y1="687.449" x2="1235.1" y2="777.242" stroke="white" stroke-opacity="0.5"/>
<line x1="1606.01" y1="706.874" x2="1239.86" y2="796.666" stroke="white" stroke-opacity="0.5"/>
<line x1="1610.78" y1="726.298" x2="1244.63" y2="816.091" stroke="white" stroke-opacity="0.5"/>
<line x1="1615.54" y1="745.723" x2="1249.39" y2="835.515" stroke="white" stroke-opacity="0.5"/>
<line x1="1620.31" y1="765.147" x2="1254.15" y2="854.939" stroke="white" stroke-opacity="0.5"/>
<line x1="1625.07" y1="784.572" x2="1258.92" y2="874.364" stroke="white" stroke-opacity="0.5"/>
<line x1="1629.83" y1="803.996" x2="1263.68" y2="893.788" stroke="white" stroke-opacity="0.5"/>
<line x1="1634.6" y1="823.421" x2="1268.44" y2="913.213" stroke="white" stroke-opacity="0.5"/>
<line x1="1586.96" y1="629.176" x2="1220.81" y2="718.968" stroke="white" stroke-opacity="0.5"/>
<rect x="1127" y="106.514" width="486" height="315" rx="10" transform="rotate(-45.6472 1127 106.514)" fill="#4B0A0A"/>
<path d="M1279.31 255.417L1380.67 151.734L1379.75 195.588L1423.57 193.679L1322.21 297.361L1279.31 255.417Z" fill="#CA9D00"/>
<rect x="917.318" y="586.237" width="10" height="174" rx="5" transform="rotate(-36.4448 917.318 586.237)" fill="#C4C4C4"/>
<rect x="932.107" y="587.747" width="2" height="53" transform="rotate(-36.4448 932.107 587.747)" fill="#C4C4C4"/>
<rect x="931.303" y="588.341" width="1" height="7" transform="rotate(-36.4448 931.303 588.341)" fill="#C4C4C4"/>
<defs>
<linearGradient id="paint0_linear" x1="904.5" y1="183.817" x2="1200.28" y2="374.357" gradientUnits="userSpaceOnUse">
<stop stop-color="white"/>
<stop offset="1" stop-color="white" stop-opacity="0"/>
</linearGradient>
</defs>
</svg>
