<svg width="359" height="160" viewBox="0 0 359 160" fill="none" xmlns="http://www.w3.org/2000/svg">
<rect width="240" height="150" rx="5" transform="matrix(1 0 0 -1 0 150)" fill="#959595"/>
<rect width="224" height="134" transform="matrix(1 0 0 -1 8 142)" fill="#252525"/>
<path d="M344.5 159H304C304 159 284.084 155.927 281 146C276.918 132.866 296.234 117.778 308.5 124C316.916 128.269 317.774 136.841 315.5 146C312.614 157.622 297.5 159 284 159C266.357 159 239 155 239 155" stroke="black" stroke-width="2"/>
<path d="M329 158.636C329 151.105 335.105 145 342.636 145H345.364C352.895 145 359 151.105 359 158.636C359 159.389 358.389 160 357.636 160H330.364C329.611 160 329 159.389 329 158.636Z" fill="#6A6A6A"/>
<path d="M0 151C0 150.448 0.447715 150 1 150H239C239.552 150 240 150.448 240 151V158C240 159.105 239.105 160 238 160H2C0.895429 160 0 159.105 0 158V151Z" fill="#C8C8C8"/>
</svg>
